<svg width="255" height="24" viewBox="0 0 255 24" fill="none" xmlns="http://www.w3.org/2000/svg">
<g clip-path="url(#clip0_1_14)">
<path d="M59.1148 23.7L52.5914 1.63672H59.2862L62.3137 15.2127H62.4851L66.0724 1.63672H71.343L74.9303 15.2544H75.1055L78.1292 1.63672H84.8279L78.3006 23.7H72.554L68.7953 11.3772H68.6201L64.8614 23.7H59.1148Z" fill="white"/>
<path d="M89.6872 5.43038C88.8798 5.43038 88.1905 5.16456 87.6117 4.63291C87.0328 4.10127 86.7472 3.46329 86.7472 2.71519C86.7472 1.96709 87.0366 1.32911 87.6117 0.797468C88.1867 0.265823 88.8798 0 89.6872 0C90.4945 0 91.1914 0.265823 91.7626 0.797468C92.3377 1.32911 92.6271 1.96709 92.6271 2.71519C92.6271 3.46329 92.3377 4.10127 91.7626 4.63291C91.1952 5.16456 90.5021 5.43038 89.6872 5.43038ZM86.7053 23.7V7.15443H92.669V23.7H86.7053Z" fill="white"/>
<path d="M95.727 23.7V20.4266L102.989 11.7645V11.6772H95.986V7.15442H110.031V10.7734L103.42 19.0899V19.1772H110.29V23.7H95.727Z" fill="white"/>
<path d="M120.004 20.2101C120.457 20.2101 120.884 20.1152 121.28 19.9291C121.684 19.7431 122.011 19.4734 122.263 19.1203C122.514 18.7671 122.64 18.3418 122.64 17.8367V16.4582C122.48 16.5228 122.312 16.5836 122.133 16.6405C121.962 16.6975 121.771 16.7506 121.569 16.8038C121.375 16.8532 121.166 16.9025 120.941 16.9443C120.724 16.9861 120.499 17.0279 120.259 17.062C119.799 17.1342 119.422 17.2519 119.125 17.419C118.835 17.5785 118.622 17.776 118.477 18.0114C118.34 18.2431 118.272 18.5013 118.272 18.7861C118.272 19.2456 118.435 19.5987 118.759 19.8418C119.083 20.0848 119.498 20.2063 120 20.2063L120.004 20.2101ZM118.058 23.9582C117 23.9582 116.063 23.7874 115.248 23.4418C114.44 23.0886 113.808 22.557 113.348 21.8468C112.887 21.1367 112.654 20.2291 112.654 19.1317C112.654 18.2279 112.811 17.4532 113.119 16.8152C113.427 16.1696 113.862 15.6418 114.414 15.2317C114.97 14.8215 115.613 14.5101 116.348 14.2937C117.091 14.0772 117.891 13.9367 118.748 13.8722C119.677 13.8 120.423 13.7127 120.983 13.6139C121.55 13.5076 121.962 13.3595 122.213 13.1734C122.464 12.9798 122.59 12.7253 122.59 12.4101V12.3684C122.59 11.9393 122.426 11.6089 122.095 11.3772C121.764 11.1456 121.337 11.0317 120.819 11.0317C120.252 11.0317 119.787 11.157 119.425 11.4076C119.071 11.6506 118.862 12.0304 118.789 12.5393H113.302C113.374 11.5329 113.694 10.6063 114.261 9.75951C114.837 8.90508 115.678 8.22153 116.779 7.71267C117.879 7.19622 119.258 6.93799 120.907 6.93799C122.095 6.93799 123.161 7.07849 124.106 7.35951C125.05 7.63292 125.854 8.01647 126.516 8.51394C127.179 9.00381 127.682 9.57723 128.028 10.238C128.382 10.8912 128.557 11.6013 128.557 12.3722V23.7038H122.982V21.376H122.853C122.521 21.995 122.118 22.4924 121.642 22.8722C121.173 23.2519 120.636 23.5291 120.031 23.7C119.433 23.8709 118.774 23.9582 118.054 23.9582H118.058Z" fill="white"/>
<path d="M131.258 23.7V7.15444H137.05V10.2987H137.221C137.522 9.13672 138.002 8.28609 138.657 7.74685C139.32 7.20761 140.093 6.93799 140.98 6.93799C141.239 6.93799 141.494 6.96077 141.745 7.00255C142.004 7.03672 142.252 7.09368 142.492 7.16584V12.2393C142.195 12.1405 141.833 12.0646 141.399 12.0114C140.969 11.962 140.595 11.9355 140.287 11.9355C139.704 11.9355 139.179 12.0684 138.71 12.3342C138.249 12.5924 137.884 12.9608 137.617 13.4317C137.351 13.8987 137.217 14.4494 137.217 15.0798V23.6962H131.254L131.258 23.7Z" fill="white"/>
<path d="M151.555 19.3481C152.104 19.3481 152.572 19.1886 152.961 18.8734C153.357 18.5506 153.657 18.0987 153.867 17.5177C154.084 16.9291 154.191 16.2304 154.191 15.4291C154.191 14.6279 154.084 13.9101 153.867 13.3291C153.657 12.7405 153.357 12.2924 152.961 11.981C152.572 11.6658 152.104 11.5063 151.555 11.5063C151.007 11.5063 150.539 11.6658 150.15 11.981C149.769 12.2886 149.472 12.7405 149.263 13.3291C149.061 13.9101 148.962 14.6127 148.962 15.4291C148.962 16.2456 149.061 16.9519 149.263 17.5405C149.472 18.1215 149.765 18.5696 150.15 18.8886C150.539 19.1962 151.007 19.3519 151.555 19.3519V19.3481ZM149.35 23.9165C148.17 23.9165 147.081 23.6089 146.087 22.9899C145.1 22.3709 144.308 21.4367 143.71 20.1798C143.12 18.9228 142.823 17.3392 142.823 15.4291C142.823 13.519 143.132 11.8101 143.752 10.5608C144.381 9.3114 145.184 8.39621 146.171 7.8152C147.164 7.23419 148.208 6.94178 149.305 6.94178C150.127 6.94178 150.847 7.08609 151.464 7.3709C152.085 7.65191 152.603 8.02786 153.022 8.50254C153.44 8.96963 153.756 9.48229 153.974 10.0443H154.061V1.63672H160.025V23.7H154.103V20.9848H153.974C153.741 21.5468 153.41 22.0481 152.98 22.4924C152.553 22.9291 152.035 23.2785 151.422 23.5367C150.817 23.7873 150.127 23.9127 149.347 23.9127L149.35 23.9165Z" fill="white"/>
<path d="M165.741 23.7L161.594 7.15442H167.554L169.458 17.2367H169.587L171.705 7.15442H177.493L179.698 17.1494H179.827L181.644 7.15442H187.608L183.457 23.7H177.021L174.686 14.8215H174.511L172.181 23.7H165.741Z" fill="white"/>
<path d="M197.01 19.6063C197.513 19.6063 197.951 19.4392 198.316 19.1013C198.682 18.7633 198.968 18.281 199.169 17.6582C199.371 17.0316 199.47 16.2911 199.47 15.4291C199.47 14.5671 199.371 13.8152 199.169 13.2C198.968 12.5734 198.682 12.0949 198.316 11.757C197.951 11.419 197.513 11.2519 197.01 11.2519C196.477 11.2519 196.02 11.419 195.639 11.757C195.258 12.0949 194.965 12.5772 194.763 13.2C194.561 13.819 194.462 14.5595 194.462 15.4291C194.462 16.2987 194.561 17.0354 194.763 17.6582C194.965 18.281 195.258 18.7633 195.639 19.1013C196.02 19.4392 196.477 19.6063 197.01 19.6063ZM196.968 24C195.167 24 193.625 23.643 192.345 22.9329C191.062 22.2152 190.079 21.2165 189.398 19.9367C188.712 18.6494 188.373 17.1608 188.373 15.4671C188.373 13.7734 188.716 12.2848 189.398 11.0089C190.083 9.72152 191.066 8.72658 192.345 8.01265C193.628 7.29493 195.167 6.93417 196.968 6.93417C198.77 6.93417 200.312 7.29493 201.591 8.01265C202.875 8.72278 203.857 9.72152 204.539 11.0089C205.224 12.2886 205.567 13.7734 205.567 15.4671C205.567 17.1608 205.224 18.6532 204.539 19.9367C203.853 21.2165 202.871 22.2152 201.591 22.9329C200.308 23.643 198.77 24 196.968 24Z" fill="white"/>
<path d="M207.833 23.7V7.15444H213.625V10.2987H213.797C214.098 9.13672 214.577 8.28609 215.232 7.74685C215.895 7.20761 216.668 6.93799 217.555 6.93799C217.814 6.93799 218.069 6.96077 218.321 7.00255C218.58 7.03672 218.827 7.09368 219.067 7.16584V12.2393C218.77 12.1405 218.408 12.0646 217.974 12.0114C217.544 11.962 217.171 11.9355 216.862 11.9355C216.28 11.9355 215.754 12.0684 215.286 12.3342C214.825 12.5924 214.459 12.9608 214.193 13.4317C213.926 13.8987 213.793 14.4494 213.793 15.0798V23.6962H207.829L207.833 23.7Z" fill="white"/>
<path d="M231.113 23.7H237.941L232.126 14.4038L237.769 7.15444H231.071L227.053 12.7101H226.836V1.63672H220.872V23.7H226.836V19.0063L227.727 17.8709L231.113 23.7Z" fill="white"/>
<path d="M254.339 12.5392H248.851C248.821 12.2013 248.703 11.9127 248.493 11.6658C248.284 11.4228 248.013 11.2367 247.682 11.1038C247.358 10.9671 246.997 10.8987 246.601 10.8987C246.09 10.8987 245.649 10.9937 245.283 11.1797C244.917 11.3658 244.735 11.6316 244.742 11.9772C244.735 12.2203 244.841 12.4481 245.054 12.657C245.279 12.8658 245.706 13.0253 246.342 13.143L249.712 13.7468C251.41 14.0544 252.675 14.5747 253.505 15.3076C254.339 16.0329 254.762 17.0051 254.769 18.2278C254.762 19.4051 254.407 20.4304 253.711 21.2962C253.017 22.1582 252.073 22.8266 250.87 23.3013C249.674 23.7684 248.31 24 246.776 24C244.24 24 242.255 23.4835 240.824 22.4468C239.399 21.4139 238.603 20.0468 238.436 18.3532H244.358C244.438 18.8772 244.696 19.2835 245.134 19.5721C245.58 19.8532 246.144 19.9937 246.821 19.9937C247.37 19.9937 247.819 19.8987 248.173 19.7127C248.535 19.5266 248.718 19.2608 248.726 18.9152C248.718 18.6 248.558 18.3494 248.25 18.1595C247.949 17.9734 247.473 17.8215 246.825 17.7076L243.885 17.1911C242.194 16.8949 240.926 16.3367 240.081 15.5089C239.239 14.6848 238.82 13.6215 238.828 12.319C238.82 11.1684 239.125 10.1962 239.734 9.39873C240.355 8.59367 241.235 7.98227 242.381 7.56835C243.535 7.14303 244.898 6.93417 246.475 6.93417C248.874 6.93417 250.763 7.42784 252.145 8.41898C253.535 9.41012 254.267 10.781 254.339 12.5354V12.5392Z" fill="white"/>
<path d="M6.2112 11.6734C6.75197 11.3317 7.11755 10.9519 7.31558 10.5266C7.52122 10.0975 7.62024 9.65697 7.62024 9.20887V7.23798C7.62024 6.73672 7.67355 6.31899 7.78018 5.99241C7.88681 5.66203 8.11531 5.419 8.46185 5.2557C8.8084 5.09621 9.34155 5.01267 10.0613 5.01267V1.42786C9.13971 1.42786 8.24098 1.46203 7.37271 1.52659C6.50443 1.58735 5.72375 1.76963 5.03446 2.07343C4.35279 2.37722 3.80441 2.88608 3.39693 3.59621C2.99707 4.30254 2.79524 5.30127 2.79524 6.59241V7.98988C2.79524 8.8671 2.58959 9.51267 2.18212 9.92659C1.77464 10.3329 1.04346 10.538 -0.0114136 10.538V14.8405C1.04346 14.8405 1.77464 15.0456 2.18212 15.4595C2.58959 15.8658 2.79524 16.5076 2.79524 17.3886V18.7861C2.79524 20.0772 2.99707 21.076 3.39693 21.7823C3.80441 22.4924 4.34899 23.0013 5.03446 23.3051C5.72375 23.6089 6.50443 23.7911 7.37271 23.8519C8.24098 23.9165 9.13971 23.9506 10.0613 23.9506V20.3658C9.34155 20.3658 8.8084 20.2861 8.46185 20.1228C8.11531 19.9633 7.88681 19.7165 7.78018 19.3861C7.67355 19.0519 7.62024 18.6342 7.62024 18.1405V16.1696C7.62024 15.7215 7.51742 15.2848 7.31558 14.8595C7.11755 14.4304 6.74816 14.043 6.2112 13.7013C5.68186 13.3671 4.92783 13.0975 3.95293 12.8962V12.4785C4.92783 12.2772 5.68186 12.0076 6.2112 11.6734Z" fill="white"/>
<path d="M39.1865 9.92659C38.779 9.51267 38.5734 8.8671 38.5734 7.98988V6.59241C38.5734 5.30127 38.3677 4.30254 37.9603 3.59621C37.5604 2.88608 37.012 2.37722 36.3227 2.07343C35.6411 1.76963 34.8642 1.58735 33.9959 1.52659C33.1314 1.46203 32.2365 1.42786 31.3073 1.42786V5.01267C32.0271 5.01267 32.5602 5.09241 32.9068 5.2557C33.2533 5.4152 33.4818 5.66203 33.5884 5.99241C33.6951 6.32279 33.7484 6.73672 33.7484 7.23798V9.20887C33.7484 9.65697 33.8474 10.0975 34.0454 10.5266C34.2511 10.9519 34.6205 11.3317 35.1612 11.6734C35.6906 12.0076 36.4446 12.2772 37.4195 12.4785V12.8962C36.4446 13.0975 35.6906 13.3671 35.1612 13.7013C34.6205 14.043 34.2511 14.4266 34.0454 14.8595C33.8474 15.2848 33.7484 15.7215 33.7484 16.1696V18.1405C33.7484 18.638 33.6951 19.0519 33.5884 19.3861C33.4818 19.7165 33.2533 19.9595 32.9068 20.1228C32.5602 20.2861 32.0271 20.3658 31.3073 20.3658V23.9506C32.2365 23.9506 33.1314 23.9165 33.9959 23.8519C34.8642 23.7911 35.6411 23.6089 36.3227 23.3051C37.012 23.0013 37.5566 22.4924 37.9603 21.7823C38.3677 21.076 38.5734 20.0772 38.5734 18.7861V17.3886C38.5734 16.5114 38.779 15.8658 39.1865 15.4595C39.594 15.0532 40.3328 14.8405 41.38 14.8405V10.538C40.3328 10.538 39.6016 10.3329 39.1865 9.92659Z" fill="white"/>
<path d="M15.2785 4.1886L17.7844 9.16708L23.1996 10.5114L18.2109 13.0063L16.8628 18.4101L14.3608 13.4316L8.9455 12.0873L13.9343 9.5924L15.2785 4.1886Z" fill="white"/>
<path d="M24.7876 2.18353L25.8463 3.83163L27.7885 4.10125L26.1395 5.16075L25.8692 7.09746L24.8105 5.44936L22.8683 5.18353L24.5172 4.12404L24.7876 2.18353Z" fill="white"/>
<path d="M27.5143 12.657L27.541 15.7747L29.9325 17.7835L26.806 17.8101L24.7914 20.1987L24.7648 17.0772L22.3732 15.0721L25.4998 15.0418L27.5143 12.657Z" fill="white"/>
</g>
<defs>
<clipPath id="clip0_1_14">
<rect width="254.769" height="24" fill="white"/>
</clipPath>
</defs>
</svg>
